<?xml version="1.0" standalone="no"?>
<!DOCTYPE svg PUBLIC "-//W3C//DTD SVG 20010904//EN"
 "http://www.w3.org/TR/2001/REC-SVG-20010904/DTD/svg10.dtd">
<svg version="1.0" xmlns="http://www.w3.org/2000/svg"
 width="500.000000pt" height="500.000000pt" viewBox="0 0 500.000000 500.000000"
 preserveAspectRatio="xMidYMid meet">
<metadata>
Created by potrace 1.11, written by Peter Selinger 2001-2013
</metadata>
<g transform="translate(0.000000,500.000000) scale(0.100000,-0.100000)"
fill="#000000" stroke="none">
<path d="M2377 4855 c-1 -2 -42 -5 -92 -9 -126 -9 -348 -49 -415 -74 -14 -5
-29 -10 -35 -11 -46 -5 -348 -124 -376 -148 -8 -7 -20 -13 -25 -13 -14 0 -204
-113 -284 -169 -109 -75 -187 -141 -304 -256 -189 -187 -320 -363 -442 -599
-35 -68 -114 -242 -118 -261 -1 -5 -15 -48 -30 -95 -29 -90 -73 -266 -81 -328
-3 -20 -7 -46 -10 -57 -26 -132 -24 -498 5 -695 36 -247 144 -561 268 -779 72
-127 76 -134 85 -145 4 -6 34 -48 66 -92 241 -334 575 -608 936 -768 148 -66
160 -70 235 -94 139 -43 166 -51 190 -56 14 -2 48 -9 75 -16 28 -6 70 -14 95
-16 25 -3 51 -7 59 -10 51 -17 390 -23 541 -10 536 45 1076 302 1455 691 158
163 252 285 379 498 25 43 46 80 46 83 0 2 20 47 44 98 82 172 161 430 182
591 3 22 7 46 9 52 8 25 19 220 19 333 0 293 -34 496 -131 780 -41 121 -132
319 -186 403 -20 31 -37 60 -37 63 0 3 -11 20 -25 38 -14 18 -25 38 -25 44 0
6 -3 12 -7 14 -5 2 -28 30 -53 63 -161 217 -355 402 -570 545 -134 89 -140 93
-185 115 -22 11 -42 22 -45 25 -5 5 -59 32 -70 35 -3 1 -36 16 -75 34 -199 92
-467 163 -710 187 -65 6 -352 13 -358 9z m-817 -1380 c105 -9 230 -40 325 -80
76 -33 196 -117 250 -177 139 -154 222 -437 206 -701 -1 -16 -11 -17 -133 -12
-73 3 -140 7 -148 9 -140 26 -196 44 -289 90 -124 61 -203 162 -279 356 -29
72 -72 266 -78 349 -13 180 -14 170 20 173 17 2 36 2 41 1 6 -1 44 -4 85 -8z
m2025 -207 c-3 -46 -10 -102 -16 -126 -5 -24 -12 -62 -14 -85 -24 -194 -104
-478 -162 -571 -75 -121 -229 -223 -453 -299 -86 -29 -226 -67 -249 -67 -14 0
-16 -48 -16 -438 l0 -437 -92 -2 c-78 -1 -92 1 -95 15 -2 9 -3 312 -2 672 1
491 4 666 14 700 7 25 14 56 17 69 6 34 84 201 94 201 4 0 10 8 14 18 10 33
142 160 222 213 159 108 379 186 573 205 30 3 56 6 57 7 1 1 27 3 58 5 l57 2
-7 -82z"/>
</g>
</svg>
