<svg xmlns="http://www.w3.org/2000/svg" width="500" height="500" viewBox="0 0 500 500" version="1.1">
	<path d="M 237.500 14.623 C 185.309 17.743, 136.848 37.026, 97.673 70.263 C 77.541 87.341, 62.294 105.373, 48.006 129 C 31.055 157.028, 20.224 188.263, 15.929 221.500 C 14.428 233.113, 14.430 266.909, 15.932 278.500 C 27.732 369.562, 89.802 445.261, 175.987 473.702 C 201.483 482.115, 221.552 485.239, 250 485.223 C 278.625 485.206, 298.593 482.096, 324.013 473.695 C 410.295 445.180, 472.262 369.608, 484.068 278.500 C 485.570 266.909, 485.572 233.113, 484.071 221.500 C 478.141 175.610, 459.250 132.543, 429.756 97.673 C 396.662 58.547, 349.431 30.192, 299.580 19.520 C 281.864 15.728, 254.772 13.591, 237.500 14.623 M 141 160.171 C 141 177.162, 146.019 198.204, 154.050 214.883 C 162.079 231.559, 172.067 239.561, 192.066 245.339 C 201.007 247.922, 216.823 250, 227.539 250 L 234 250 234 240.442 C 234 216.148, 226.339 192.633, 213.863 178.636 C 200.653 163.815, 176.988 153.708, 152.250 152.324 L 141 151.694 141 160.171 M 347.500 165.679 C 338.051 166.489, 324.333 169.262, 316.051 172.036 C 285.806 182.169, 265.608 198.290, 255.492 220.371 C 249.015 234.508, 249 234.718, 249 308.985 L 249 376.075 258.250 375.788 L 267.500 375.500 267.760 331.951 L 268.021 288.402 275.760 286.605 C 306.264 279.523, 330.069 266.351, 339.260 251.468 C 346.636 239.523, 355.725 202.237, 358.571 172.250 L 359.258 165 355.379 165.168 C 353.246 165.261, 349.700 165.490, 347.500 165.679" stroke="none" fill="black" fill-rule="evenodd"/>
</svg>