<?xml version="1.0"?>
<svg xmlns="http://www.w3.org/2000/svg" xmlns:xlink="http://www.w3.org/1999/xlink" xmlns:svgjs="http://svgjs.com/svgjs" version="1.1" width="512" height="512" x="0" y="0" viewBox="0 0 512 512" style="enable-background:new 0 0 512 512" xml:space="preserve" class=""><g><g xmlns="http://www.w3.org/2000/svg"><path d="m481.103 146.775c-2.723-3.324-3.188-8.155-1.159-12.019.745-1.418 1.452-2.887 2.104-4.371 7.362-16.769 7.753-35.401 1.102-52.464-6.652-17.062-19.55-30.515-36.318-37.876-16.769-7.362-35.399-7.754-52.464-1.102-17.062 6.651-30.515 19.549-37.874 36.313-.647 1.474-1.252 2.991-1.795 4.51-1.472 4.111-5.344 7.038-9.636 7.283-2.647.152-5.287.459-7.902.917-2.196-1.455-4.486-2.802-6.875-4.018-3.83-1.949-6.198-6.186-5.894-10.541.113-1.605.17-3.235.17-4.846 0-37.804-30.756-68.561-68.562-68.561s-68.562 30.757-68.562 68.562c0 1.61.057 3.24.17 4.847.305 4.354-2.063 8.591-5.894 10.54-2.389 1.216-4.679 2.563-6.875 4.018-2.615-.458-5.255-.765-7.904-.917-4.29-.245-8.162-3.172-9.633-7.28-.544-1.521-1.148-3.039-1.794-4.509-7.361-16.769-20.813-29.666-37.876-36.317-17.062-6.653-35.694-6.262-52.464 1.102-16.768 7.361-29.665 20.813-36.317 37.876-6.651 17.062-6.261 35.695 1.104 52.468.65 1.48 1.357 2.949 2.102 4.365 2.03 3.865 1.564 8.696-1.158 12.021-16.442 20.074-20.181 47.294-9.756 71.035 5.797 13.205 15.4 24.061 27.776 31.396 4.517 2.677 6.855 7.614 5.82 12.285-3.391 15.298-1.373 31.478 5.68 45.56 9.519 19.002 27.793 32.691 48.885 36.618 31.362 5.837 59.741 15.38 84.35 28.364l1.155.609 46.191 105.215v34.142h30v-34.142l46.192-105.216 1.156-.609c24.607-12.984 52.986-22.527 84.35-28.364 21.091-3.927 39.365-17.616 48.884-36.618 7.053-14.082 9.07-30.262 5.68-45.558-1.035-4.673 1.304-9.61 5.822-12.288 12.374-7.334 21.978-18.189 27.774-31.394 10.425-23.742 6.687-50.961-9.755-71.036zm-285.78-36.089c14.646-7.456 23.364-22.91 22.211-39.373-.064-.911-.097-1.836-.097-2.75.001-21.264 17.299-38.563 38.563-38.563s38.562 17.299 38.562 38.562c0 .914-.032 1.839-.096 2.749-1.154 16.464 7.564 31.918 22.21 39.374 13.014 6.624 21.098 19.8 21.098 34.386 0 8.112-2.486 15.868-7.191 22.429-10.636 14.83-10.725 34.438-.221 48.791 5.271 7.202 7.817 15.765 7.361 24.761-.604 11.903-6.944 23.081-16.962 29.9-18.496 12.593-35.138 26.237-49.762 40.764v-180.17h-30v180.17c-14.624-14.527-31.265-28.172-49.762-40.764-10.018-6.819-16.358-17.997-16.962-29.9-.456-8.996 2.09-17.559 7.361-24.762 10.504-14.353 10.415-33.96-.221-48.79-4.705-6.561-7.191-14.316-7.191-22.429.002-14.586 8.086-27.761 21.099-34.385zm-108.082 182.929c-4.034-8.054-5.146-16.918-3.214-25.634 3.848-17.363-4.116-35.281-19.814-44.583-6.946-4.117-12.342-10.22-15.603-17.647-5.863-13.354-3.758-28.669 5.496-39.966 10.413-12.714 12.183-30.37 4.507-44.982-.422-.804-.823-1.638-1.192-2.478-4.141-9.431-4.36-19.91-.619-29.507s10.996-17.163 20.428-21.304c9.431-4.14 19.911-4.361 29.507-.619 9.598 3.741 17.163 10.995 21.306 20.431.365.832.707 1.689 1.016 2.553 3.953 11.043 12.269 19.61 22.637 23.983-4.828 9.466-7.469 20.105-7.469 31.209 0 14.422 4.431 28.224 12.812 39.911 3.06 4.267 3.217 9.729.391 13.59-9.254 12.644-13.911 28.27-13.113 43.999 1.076 21.227 12.306 41.106 30.04 53.18 10.754 7.321 20.792 15.012 30.099 23.024-2.81 7.104-5.326 14.24-7.535 21.361-24.646-11.674-52.211-20.393-82.128-25.961-11.914-2.218-22.214-9.904-27.552-20.56zm135.036 66.968.334-1.265c1.56-5.914 3.381-11.868 5.429-17.828 4.275 4.632 8.335 9.343 12.147 14.139l.813 1.023v46.578zm48.723-3.93.813-1.023c3.812-4.796 7.872-9.507 12.147-14.139 2.048 5.96 3.87 11.915 5.429 17.829l.334 1.265-18.723 42.646zm192.39-150.901c-3.261 7.427-8.656 13.529-15.601 17.646-15.7 9.303-23.664 27.221-19.816 44.586 1.932 8.714.82 17.578-3.214 25.632-5.338 10.656-15.638 18.342-27.55 20.56-29.918 5.568-57.483 14.288-82.129 25.962-2.209-7.121-4.725-14.257-7.535-21.361 9.308-8.012 19.346-15.704 30.099-23.024 17.734-12.073 28.964-31.953 30.04-53.18.798-15.729-3.859-31.355-13.113-43.998-2.826-3.862-2.669-9.324.391-13.591 8.382-11.688 12.812-25.489 12.812-39.911 0-11.104-2.641-21.744-7.469-31.21 10.369-4.373 18.685-12.941 22.638-23.985.308-.86.649-1.718 1.017-2.554 4.141-9.432 11.706-16.686 21.304-20.427 9.597-3.742 20.077-3.522 29.507.619 9.432 4.141 16.687 11.707 20.428 21.304s3.521 20.076-.617 29.503c-.371.844-.772 1.678-1.195 2.482-7.675 14.611-5.905 32.268 4.508 44.981 9.252 11.296 11.358 26.61 5.495 39.966z" fill="#ffffff" data-original="#000000" style="" class=""/></g></g></svg>
